<svg width="1281" height="423" viewBox="0 0 1281 423" fill="none" xmlns="http://www.w3.org/2000/svg">
<path d="M539.934 391.358C534.891 391.358 530.487 390.457 526.737 388.684C523.016 386.867 519.906 384.367 517.435 381.184C514.993 378.015 513.161 374.352 511.97 370.195C510.807 366.053 510.225 361.62 510.225 356.881C510.225 353.204 510.589 349.672 511.33 346.3C512.057 342.899 513.205 339.759 514.76 336.882C516.301 334.018 518.278 331.518 520.69 329.382C523.089 327.216 525.937 325.544 529.237 324.382C532.522 323.19 536.286 322.579 540.516 322.579C544.658 322.579 548.452 323.204 551.911 324.44C555.356 325.69 558.379 327.623 560.981 330.254C563.568 332.855 565.647 336.228 567.202 340.37L560.341 343.335C559.644 340.704 558.597 338.509 557.202 336.765C555.806 334.992 554.193 333.568 552.376 332.521C550.545 331.475 548.597 330.719 546.504 330.254C544.44 329.789 542.347 329.556 540.225 329.556C536.155 329.556 532.667 330.297 529.76 331.765C526.882 333.204 524.542 335.196 522.725 337.754C520.937 340.312 519.615 343.248 518.772 346.533C517.958 349.788 517.551 353.204 517.551 356.765C517.551 360.486 517.972 364.018 518.83 367.347C519.673 370.646 521.01 373.597 522.842 376.184C524.658 378.742 527.028 380.777 529.935 382.288C532.841 383.771 536.33 384.498 540.4 384.498C543.307 384.498 546.039 384.062 548.597 383.16C551.155 382.274 553.437 380.82 555.458 378.8C557.507 376.751 559.149 374.003 560.399 370.544L567.318 373.509C564.833 379.207 561.243 383.611 556.562 386.707C551.911 389.817 546.359 391.358 539.934 391.358Z" fill="white"/>
<path d="M612.178 391.358C608.108 391.358 604.46 390.777 601.248 389.614C598.065 388.422 595.274 386.751 592.876 384.614C590.507 382.492 588.53 379.992 586.946 377.114C585.39 374.251 584.228 371.111 583.457 367.696C582.672 364.294 582.294 360.748 582.294 357.056C582.294 353.335 582.672 349.789 583.457 346.417C584.228 343.015 585.39 339.876 586.946 336.998C588.53 334.091 590.507 331.577 592.876 329.44C595.274 327.318 598.065 325.661 601.248 324.498C604.46 323.306 608.108 322.696 612.178 322.696C616.277 322.696 619.94 323.306 623.166 324.498C626.378 325.661 629.169 327.318 631.538 329.44C633.937 331.577 635.928 334.091 637.527 336.998C639.111 339.876 640.288 343.015 641.073 346.417C641.843 349.789 642.236 353.335 642.236 357.056C642.236 360.748 641.843 364.294 641.073 367.696C640.288 371.111 639.111 374.251 637.527 377.114C635.928 379.992 633.937 382.492 631.538 384.614C629.169 386.751 626.378 388.422 623.166 389.614C619.94 390.777 616.277 391.358 612.178 391.358ZM612.178 384.498C616.248 384.498 619.707 383.742 622.585 382.23C625.492 380.719 627.846 378.684 629.678 376.126C631.495 373.539 632.832 370.603 633.689 367.347C634.532 364.062 634.968 360.632 634.968 357.056C634.968 353.495 634.532 350.079 633.689 346.824C632.832 343.539 631.495 340.588 629.678 337.986C627.846 335.399 625.492 333.364 622.585 331.882C619.707 330.37 616.248 329.614 612.178 329.614C608.181 329.614 604.751 330.37 601.887 331.882C599.009 333.364 596.669 335.399 594.852 337.986C593.065 340.588 591.742 343.539 590.899 346.824C590.041 350.079 589.62 353.495 589.62 357.056C589.62 360.632 590.041 364.062 590.899 367.347C591.742 370.603 593.065 373.539 594.852 376.126C596.669 378.684 599.009 380.719 601.887 382.23C604.751 383.742 608.181 384.498 612.178 384.498Z" fill="white"/>
<path d="M663.152 390.428V323.684H673.966L702.687 382.463V323.684H710.128V390.428H699.14L670.652 331.533V390.428H663.152Z" fill="white"/>
<path d="M752.22 391.184C749.502 391.184 746.871 390.806 744.313 390.079C741.755 389.352 739.429 388.248 737.336 386.765C735.243 385.254 733.47 383.393 732.045 381.184C730.606 378.945 729.633 376.329 729.138 373.335L736.173 371.242C736.478 374.236 737.409 376.707 738.964 378.684C740.505 380.661 742.452 382.143 744.778 383.102C747.132 384.033 749.632 384.498 752.278 384.498C754.952 384.498 757.292 384.076 759.313 383.219C761.318 382.376 762.888 381.053 764.022 379.265C765.185 377.492 765.766 375.254 765.766 372.579C765.766 370.457 765.315 368.611 764.429 367.056C763.528 365.472 762.307 364.12 760.766 362.986C759.211 361.867 757.481 360.864 755.592 359.963C753.688 359.033 751.711 358.146 749.662 357.289C747.641 356.402 745.679 355.457 743.789 354.44C741.885 353.437 740.156 352.274 738.615 350.951C737.06 349.6 735.839 348.015 734.952 346.184C734.051 344.367 733.615 342.172 733.615 339.614C733.615 337.056 734.08 334.76 735.01 332.696C735.97 330.603 737.292 328.829 738.964 327.347C740.621 325.835 742.539 324.702 744.72 323.917C746.885 323.103 749.211 322.696 751.696 322.696C755.65 322.696 759.196 323.553 762.336 325.254C765.504 326.925 768.15 329.542 770.243 333.103L764.603 336.882C763.237 334.251 761.406 332.318 759.08 331.068C756.754 329.789 754.255 329.149 751.58 329.149C749.72 329.149 747.975 329.556 746.348 330.37C744.72 331.155 743.397 332.274 742.394 333.742C741.377 335.181 740.882 336.911 740.882 338.917C740.882 340.777 741.319 342.405 742.22 343.8C743.106 345.167 744.327 346.358 745.882 347.405C747.423 348.451 749.153 349.425 751.057 350.312C752.946 351.213 754.909 352.114 756.929 353.044C758.978 353.946 760.955 354.934 762.859 356.01C764.749 357.1 766.478 358.379 768.033 359.847C769.574 361.329 770.795 363.044 771.696 365.021C772.583 366.969 773.033 369.294 773.033 371.998C773.033 374.948 772.51 377.608 771.464 379.963C770.417 382.332 768.935 384.352 767.045 386.009C765.185 387.681 762.975 388.96 760.417 389.847C757.888 390.733 755.156 391.184 752.22 391.184Z" fill="white"/>
<path d="M808.138 390.428V329.847H785.638V323.684H838.254V329.847H815.696V390.428H808.138Z" fill="white"/>
<path d="M856.191 390.544V323.8H875.318C878.225 323.8 880.958 324.236 883.516 325.079C886.074 325.893 888.298 327.1 890.202 328.684C892.092 330.283 893.574 332.216 894.621 334.498C895.696 336.794 896.248 339.382 896.248 342.289C896.248 345.283 895.638 347.972 894.446 350.37C893.283 352.739 891.626 354.716 889.504 356.3C887.411 357.899 884.926 358.975 882.063 359.556L900.144 390.544H891.365L874.679 360.544H863.691V390.544H856.191ZM863.807 353.684H876.539C878.894 353.568 881.016 353.073 882.876 352.172C884.737 351.242 886.205 349.963 887.295 348.335C888.371 346.707 888.923 344.701 888.923 342.289C888.923 339.73 888.342 337.579 887.179 335.835C886.016 334.062 884.403 332.696 882.353 331.765C880.333 330.835 878.007 330.37 875.376 330.37H863.807V353.684Z" fill="white"/>
<path d="M940.792 391.358C936.635 391.358 933.088 390.675 930.152 389.323C927.245 387.972 924.861 386.111 923.001 383.742C921.141 381.344 919.774 378.611 918.931 375.544C918.074 372.492 917.652 369.294 917.652 365.951V323.684H925.152V363.858C925.152 366.693 925.399 369.367 925.908 371.881C926.402 374.367 927.245 376.533 928.408 378.393C929.6 380.254 931.213 381.707 933.233 382.754C935.239 383.771 937.768 384.265 940.792 384.265C943.815 384.265 946.344 383.771 948.408 382.754C950.457 381.707 952.085 380.254 953.291 378.393C954.527 376.533 955.399 374.367 955.908 371.881C956.402 369.367 956.664 366.693 956.664 363.858V323.684H964.222V365.486C964.222 368.945 963.771 372.23 962.884 375.37C961.983 378.48 960.588 381.242 958.698 383.684C956.838 386.097 954.425 387.972 951.489 389.323C948.539 390.675 944.978 391.358 940.792 391.358Z" fill="white"/>
<path d="M1003.25 390.428V329.847H980.754V323.684H1033.37V329.847H1010.81V390.428H1003.25Z" fill="white"/>
<path d="M1077 391.358C1072.93 391.358 1069.29 390.777 1066.07 389.614C1062.89 388.422 1060.1 386.751 1057.7 384.614C1055.33 382.492 1053.36 379.992 1051.77 377.114C1050.22 374.251 1049.05 371.111 1048.28 367.696C1047.5 364.294 1047.12 360.748 1047.12 357.056C1047.12 353.335 1047.5 349.789 1048.28 346.417C1049.05 343.015 1050.22 339.876 1051.77 336.998C1053.36 334.091 1055.33 331.577 1057.7 329.44C1060.1 327.318 1062.89 325.661 1066.07 324.498C1069.29 323.306 1072.93 322.696 1077 322.696C1081.1 322.696 1084.77 323.306 1087.99 324.498C1091.21 325.661 1094 327.318 1096.36 329.44C1098.76 331.577 1100.75 334.091 1102.35 336.998C1103.94 339.876 1105.11 343.015 1105.9 346.417C1106.67 349.789 1107.06 353.335 1107.06 357.056C1107.06 360.748 1106.67 364.294 1105.9 367.696C1105.11 371.111 1103.94 374.251 1102.35 377.114C1100.75 379.992 1098.76 382.492 1096.36 384.614C1094 386.751 1091.21 388.422 1087.99 389.614C1084.77 390.777 1081.1 391.358 1077 391.358ZM1077 384.498C1081.07 384.498 1084.53 383.742 1087.41 382.23C1090.32 380.719 1092.67 378.684 1094.5 376.126C1096.32 373.539 1097.66 370.603 1098.52 367.347C1099.36 364.062 1099.8 360.632 1099.8 357.056C1099.8 353.495 1099.36 350.079 1098.52 346.824C1097.66 343.539 1096.32 340.588 1094.5 337.986C1092.67 335.399 1090.32 333.364 1087.41 331.882C1084.53 330.37 1081.07 329.614 1077 329.614C1073.01 329.614 1069.58 330.37 1066.71 331.882C1063.84 333.364 1061.5 335.399 1059.68 337.986C1057.89 340.588 1056.57 343.539 1055.73 346.824C1054.87 350.079 1054.45 353.495 1054.45 357.056C1054.45 360.632 1054.87 364.062 1055.73 367.347C1056.57 370.603 1057.89 373.539 1059.68 376.126C1061.5 378.684 1063.84 380.719 1066.71 382.23C1069.58 383.742 1073.01 384.498 1077 384.498Z" fill="white"/>
<path d="M1127.98 390.544V323.8H1147.11C1150.01 323.8 1152.75 324.236 1155.3 325.079C1157.86 325.893 1160.09 327.1 1161.99 328.684C1163.88 330.283 1165.36 332.216 1166.41 334.498C1167.48 336.794 1168.04 339.382 1168.04 342.289C1168.04 345.283 1167.43 347.972 1166.23 350.37C1165.07 352.739 1163.41 354.716 1161.29 356.3C1159.2 357.899 1156.71 358.975 1153.85 359.556L1171.93 390.544H1163.15L1146.47 360.544H1135.48V390.544H1127.98ZM1135.59 353.684H1148.33C1150.68 353.568 1152.8 353.073 1154.66 352.172C1156.52 351.242 1157.99 349.963 1159.08 348.335C1160.16 346.707 1160.71 344.701 1160.71 342.289C1160.71 339.73 1160.13 337.579 1158.97 335.835C1157.8 334.062 1156.19 332.696 1154.14 331.765C1152.12 330.835 1149.8 330.37 1147.16 330.37H1135.59V353.684Z" fill="white"/>
<path d="M1183.68 390.428L1208.8 323.684H1214.56L1239.44 390.428H1231.42L1226.3 375.951H1197L1191.88 390.428H1183.68ZM1199.5 369.091H1223.74L1211.71 334.672L1199.5 369.091Z" fill="white"/>
<path d="M599.129 261.446C579.478 261.446 562.748 257.246 548.955 248.83C535.147 240.385 524.682 228.83 517.56 214.179C510.467 199.499 506.92 182.769 506.92 164.005C506.92 145.255 510.467 128.584 517.56 114.005C524.682 99.4413 535.147 87.9442 548.955 79.5286C562.748 71.0839 579.478 66.8542 599.129 66.8542C618.737 66.8542 635.408 71.0839 649.129 79.5286C662.85 87.9442 673.286 99.4413 680.466 114.005C687.675 128.584 691.28 145.255 691.28 164.005C691.28 182.769 687.675 199.499 680.466 214.179C673.286 228.83 662.85 240.385 649.129 248.83C635.408 257.246 618.737 261.446 599.129 261.446ZM599.129 223.132C610.408 223.132 619.332 220.502 625.931 215.226C632.516 209.92 637.239 202.755 640.117 193.714C642.981 184.688 644.42 174.79 644.42 164.005C644.42 153.235 642.981 143.395 640.117 134.47C637.239 125.517 632.516 118.409 625.931 113.133C619.332 107.828 610.408 105.168 599.129 105.168C587.806 105.168 578.795 107.828 572.094 113.133C565.423 118.409 560.699 125.517 557.908 134.47C555.147 143.395 553.78 153.235 553.78 164.005C553.78 174.79 555.147 184.688 557.908 193.714C560.699 202.755 565.423 209.92 572.094 215.226C578.795 220.502 587.806 223.132 599.129 223.132Z" fill="white"/>
<path d="M709.295 257.26V71.0403H799.643C819.09 71.0403 833.8 74.8629 843.771 82.4937C853.77 90.139 858.77 101.941 858.77 117.9C858.77 129.383 855.864 138.191 850.05 144.354C844.236 150.517 837.506 154.906 829.875 157.493V158.017C836.46 159.063 842.491 161.33 847.957 164.819C853.422 168.278 857.797 173.046 861.096 179.121C864.381 185.211 866.038 192.944 866.038 202.319C866.038 215.502 863.378 226.141 858.073 234.237C852.797 242.304 845.369 248.161 835.805 251.795C826.271 255.443 815.079 257.26 802.259 257.26H709.295ZM756.155 146.331H788.422C795.05 146.331 800.602 145.168 805.108 142.842C809.643 140.488 811.91 135.459 811.91 127.784C811.91 120.153 809.643 115.168 805.108 112.842C800.602 110.488 795.05 109.296 788.422 109.296H756.155V146.331ZM756.155 218.946H789.759C799.483 218.946 806.809 217.435 811.736 214.412C816.692 211.388 819.178 205.545 819.178 196.854C819.178 188.176 816.692 182.362 811.736 179.412C806.809 176.432 799.483 174.935 789.759 174.935H756.155V218.946Z" fill="white"/>
<path d="M884.056 257.26V71.0403H930.916V218.946H1013.76V257.26H884.056Z" fill="white"/>
<path d="M1031.44 257.26V71.0403H1078.3V257.26H1031.44Z" fill="white"/>
<path d="M1255.15 272.376L1234.11 251.272C1227.67 254.571 1220.63 257.086 1213 258.83C1205.36 260.574 1197.2 261.446 1188.53 261.446C1168.88 261.446 1152.15 257.246 1138.35 248.83C1124.54 240.385 1114.08 228.83 1106.96 214.179C1099.86 199.499 1096.32 182.769 1096.32 164.005C1096.32 145.255 1099.86 128.584 1106.96 114.005C1114.08 99.4413 1124.54 87.9443 1138.35 79.5286C1152.15 71.0839 1168.88 66.8542 1188.53 66.8542C1208.13 66.8542 1224.81 71.0839 1238.53 79.5286C1252.25 87.9443 1262.68 99.4413 1269.86 114.005C1277.07 128.584 1280.68 145.255 1280.68 164.005C1280.68 189.354 1274.25 210.72 1261.43 228.074L1280.44 247.086L1255.15 272.376ZM1188.53 223.132C1194.41 223.132 1199.53 222.362 1203.87 220.807L1180.97 197.9L1206.2 172.609L1229.11 195.516C1232.25 186.33 1233.82 175.836 1233.82 164.005C1233.82 153.235 1232.38 143.395 1229.51 134.47C1226.64 125.517 1221.91 118.409 1215.33 113.133C1208.73 107.828 1199.81 105.168 1188.53 105.168C1177.2 105.168 1168.19 107.828 1161.49 113.133C1154.82 118.409 1150.1 125.517 1147.31 134.47C1144.54 143.395 1143.18 153.235 1143.18 164.005C1143.18 174.79 1144.54 184.688 1147.31 193.714C1150.1 202.755 1154.82 209.92 1161.49 215.226C1168.19 220.502 1177.2 223.132 1188.53 223.132Z" fill="white"/>
<mask id="mask0_6_122" style="mask-type:luminance" maskUnits="userSpaceOnUse" x="0" y="0" width="423" height="423">
<path d="M0 0H422.062V422.614H0V0Z" fill="white"/>
</mask>
<g mask="url(#mask0_6_122)">
<path d="M0 0H422.062V422.076H0V0Z" fill="#C9653C"/>
</g>
<mask id="mask1_6_122" style="mask-type:luminance" maskUnits="userSpaceOnUse" x="224" y="276" width="72" height="147">
<path d="M224.839 276.423H295.536V422.716H224.839V276.423Z" fill="white"/>
</mask>
<g mask="url(#mask1_6_122)">
<path d="M226.917 422.614H292.382V310.071L226.917 278.298V422.614Z" fill="#C9653C"/>
</g>
<mask id="mask2_6_122" style="mask-type:luminance" maskUnits="userSpaceOnUse" x="96" y="123" width="286" height="300">
<path d="M96.9762 123.865H381.117V422.716H96.9762V123.865Z" fill="white"/>
</mask>
<g mask="url(#mask2_6_122)">
<path d="M226.917 234.94L140.929 276.801V200.1L292.382 126.409V310.071L226.917 278.225V234.94ZM378.821 422.614V352.062L292.382 310.071V422.614H378.821ZM97.0634 298.123V422.614H140.929V276.801L97.0634 298.123Z" fill="white"/>
</g>
<mask id="mask3_6_122" style="mask-type:luminance" maskUnits="userSpaceOnUse" x="139" y="64" width="284" height="359">
<path d="M139.258 64.8833H422.047V422.716H139.258V64.8833Z" fill="white"/>
</mask>
<g mask="url(#mask3_6_122)">
<path d="M421.96 127.834V422.614H292.382H378.821V352.062L292.382 310.071V64.8833L421.96 127.834ZM226.917 278.298V235.013L140.929 276.801V422.614H226.99V278.298H226.917Z" fill="black"/>
</g>
</svg>
